<svg xmlns="http://www.w3.org/2000/svg" class="nanostring-logo" viewBox="0 0 2004.28 1523.69" data-fc-idx="0">
  <defs>
    <style>
      #Layer_1 .path-cls-1 {
        fill: #ffff;
      }

      .path-cls-1, .path-cls-2, .path-cls-3 {
        stroke-width: 0px;
      }

      .path-cls-2 {
         fill: #ffff;
      }

      .path-cls-3 {
        fill: #ffff;
      }
      .scrolled .custom-logo-link .path-cls-2{
         fill: #0072bb!important;
      }
      .scrolled .custom-logo-link .path-cls-1{
         fill: #000!important;
      }
      .scrolled .custom-logo-link .path-cls-3{
         fill: #004e82!important;
      }
    </style>
  </defs>
  <g id="Layer_1" data-name="Layer 1">
    <g>
      <g>
        <path class="path-cls-2" d="M742.28,185.95h7.41c12.5.83,24.55,6.93,32.54,16.6,7.76,9.11,11.43,21.25,10.81,33.15,34.22,12.18,67.68,26.53,100.07,42.99,35.11,17.68,69.71,36.41,103.62,56.3,74.26-45.61,153.31-84.81,237.69-107.68,56.73-15.5,115.67-22.5,174.44-21.5,19.74.58,39.6,3.21,58.29,9.8,14.38,5.03,27.99,12.61,39.15,23.04,13.57,12.57,23,29.31,27.37,47.23,4.82,19.32,3.71,39.65-.26,59.01-4.43,21.18-12.26,41.5-21.56,60.98-14.46,30.14-32.42,58.41-50.84,86.23-10.06-.09-20.11.03-30.16-.06,14.56-18.74,28.43-38.04,40.89-58.25,16.93-27.71,32.18-57.04,39.65-88.84,4.6-20.11,5.56-42.11-3.24-61.25-5.93-13.17-16.51-24.03-29.35-30.59-18.13-9.49-38.73-12.9-58.94-14.29-29.12-1.8-58.34.95-87.09,5.56-53.66,8.9-106.14,24.52-156.39,45.24-11.98,5.32-24.42,9.45-36.44,14.67-34.01,14.39-66.81,31.52-98.79,49.96-2.1,1.26-4.46,2.21-6.18,4,36.62,23.05,72.19,47.78,106.68,73.93,26.62,20.02,52.48,41.1,80,59.89-12.6.6-25.21-.04-37.81,0-54.22-44.09-111.64-84.14-171.1-120.82-29.73,18.07-58.62,37.5-86.82,57.86-26.99,19.67-53.57,40.06-77.88,63-22.29-.23-44.58.5-66.86-.13,3.47-3.11,7.12-5.98,10.71-8.94,58.56-47.94,119.21-93.45,182.92-134.33-60.62-34.99-123.42-66.52-188.89-91.42-8.03,12.46-22.05,20.97-36.96,21.5-14.2.89-28.58-5.27-37.76-16.13-7.78-8.91-11.63-20.83-11.25-32.6-10.59-2.58-21.25-4.89-31.98-6.8-33.87-5.93-68.99-8.74-102.92-1.69-20.35,4.28-40.18,12.84-55.67,26.95-6.81,5.99-12.06,13.75-14.93,22.36-5.85,17.41-3.12,36.33,1.79,53.62,8.38,28.47,22.85,54.67,38.4,79.79,15.47,24.76,32.81,48.27,50.21,71.69,3.65,5.09,7.61,10.01,10.63,15.51-.11.12-.33.36-.45.47-15.7.25-31.43.07-47.14.08-22.38-31.46-42.11-64.9-57.94-100.13-12.15-27.61-22.22-56.66-24.63-86.91-1.64-21.33,1.41-43.94,13.52-62.05,11.61-17.69,30.75-28.88,50.43-35.49,21.75-7.28,44.8-9.75,67.64-10.11,36.61-.41,73.02,4.99,108.72,12.71,7.32-13.43,21.43-22.64,36.65-24.11Z" style="fill: rgb(255, 255, 255) !important; stroke-width: 0px !important;"/>
        <path class="path-cls-2" d="M547.95,698.82c15.01,0,30.02.02,45.02,0,.68.05,3.53-.11,2.16,1.3-7.4,11.76-16.25,22.53-24.32,33.82-12.32,16.79-24.3,33.84-35.39,51.46-15.97,25.62-30.82,52.39-39.32,81.51-5.19,18.4-7.83,38.88-.17,56.99,4.87,11.93,14.89,20.7,25.35,27.73,18.01,11.98,39.35,18.03,60.68,20.45,39.62,4.29,79.52-1.97,118-11.24-.39-11.5,3.29-23.13,10.71-31.97,9.15-11.21,23.77-17.65,38.22-16.76,14.92.52,29,9.02,37.03,21.51,65.46-24.91,128.28-56.4,188.88-91.43-67.63-43.44-131.89-91.96-193.7-143.29,21.58-.52,43.18.04,64.78-.08,3.29-.34,5.08,3.01,7.37,4.8,25.19,23.12,52.55,43.72,80.29,63.66,25.84,18.33,52.15,36.03,79.29,52.37,59.36-36.76,116.83-76.69,170.99-120.81,12.6.05,25.21-.61,37.81,0-22.78,15.56-44.41,32.7-66.3,49.47-38.88,30.02-79.09,58.34-120.62,84.58,42.05,24.59,85.51,47.1,131.25,64.01,26.55,11.44,53.74,21.37,81.43,29.68,38.38,11.46,77.69,20.2,117.58,24.17,25.87,2.45,52.15,3.07,77.84-1.34,15.49-2.76,31.01-7.46,44.04-16.54,13.14-9.04,22.25-23.37,25.8-38.84,3.95-16.87,2.09-34.53-2-51.19-4.55-18.27-11.84-35.73-20.24-52.54-16.48-32.53-37.23-62.69-59.57-91.44,10.08-.07,20.16,0,30.24-.03,17.76,27.02,35.25,54.34,49.44,83.45,14.18,29.3,25.7,60.84,26.33,93.74.47,22.49-5.75,45.45-19.29,63.61-9.96,13.59-23.79,24.04-39.03,31.06-16.55,7.62-34.59,11.59-52.66,13.36-19.95,1.92-40.02,1.11-59.99.33-47.42-2.25-94.55-10.12-140.18-23.2-81.11-23.2-157.25-61.18-228.91-105.25-38.94,22.74-78.69,44.1-119.16,63.99-27.57,13.2-55.78,25.08-84.6,35.29.08,5.62-.23,11.32-1.94,16.71-4.55,15.45-17.71,28.28-33.54,31.69-2.57.64-5.36.23-7.81,1.35h-7.09c-15.38-1.28-29.62-10.61-37.04-24.12-41.88,9.05-84.89,15.02-127.8,11.87-21.47-1.7-43.06-5.76-62.68-14.91-13.63-6.43-26.35-15.55-35.04-28.03-9.27-13.02-13.86-28.91-14.88-44.75-1.35-20.84,2.43-41.66,8.22-61.61,6.04-20.71,14.38-40.67,23.82-60.03,14.55-29.51,31.54-57.81,50.7-84.55Z" style="fill: rgb(255, 255, 255) !important; stroke-width: 0px !important;"/>
      </g>
      <g>
        <path class="path-cls-1" d="M232.89,504.62c62.66-.11,125.32,0,187.98-.05,8.67.1,17.92,1.2,25.19,6.33,7.85,6.59,11.6,16.89,12.32,26.9,1.34,11.33-1.38,23.31-8.44,32.39-4.11,5.1-10,8.31-15.89,10.92,13.06,4.86,25.3,14.69,28.92,28.68,3.82,15.36,4.31,32.26-2.12,47.02-4.34,9.8-11.21,19.2-21.41,23.42-11.36,5.62-24.26,4.93-36.56,4.85-56.67-.02-113.33.02-169.99-.02v-180.44ZM311,556.38c-.2,5.08-.15,10.16-.03,15.25,20.65-.14,41.31.02,61.97-.08,2.67.09,5.23-1.67,6.2-4.13,1.96-4.48-.94-10.97-6.26-10.94-20.62-.13-41.25.09-61.88-.1ZM310.89,620.95c.02,4.89-.09,9.79.09,14.69,23.64-.13,47.29-.05,70.94-.04,2.23-.09,4.77.38,6.62-1.2,4.67-3.75,3.22-13.31-3.55-13.38-24.7-.16-49.4-.02-74.1-.07Z" style="fill: rgb(255, 255, 255) !important; stroke-width: 0px !important;"/>
        <path class="path-cls-1" d="M504.76,504.58c57.72,0,115.43,0,173.15,0,12.74.41,26.21,2.8,36.41,11,10.97,8.18,16.08,22.1,17.3,35.33.71,15.64-2.62,32.44-13.34,44.41-7.12,8.35-17.83,12.47-28.35,14.5,4.27,8.26,9.66,15.99,14.34,24.06,10.39,17.07,20.83,34.11,31.2,51.19-28.23,0-56.46,0-84.69,0-11.36-18.95-22.77-37.88-34.16-56.81-2.57-3.81-4.4-8.22-7.39-11.67-9.24-.06-18.47.01-27.71-.02,0,22.8-.06,45.6.03,68.4-25.59.25-51.19.04-76.79.1v-180.49ZM581.52,556.7c-.02,4.94.02,9.88-.04,14.82,20.47.12,40.94.04,61.41.05,3,.09,6.41-1.29,7.23-4.45,1.85-4.42-1.09-10.51-6.25-10.38-20.78-.1-41.57-.01-62.35-.04Z" style="fill: rgb(255, 255, 255) !important; stroke-width: 0px !important;"/>
        <path class="path-cls-1" d="M766.51,504.57c25.88,0,51.75,0,77.63,0,0,36.47,0,72.93,0,109.4.15,5.57,1.48,12.01,6.47,15.28,8.75,7,20.6,7.44,31.3,6.75,7.75-.8,16.29-3.08,21.11-9.71,4.07-5.17,3.05-12.15,3.36-18.29,0-34.45.12-68.91-.27-103.36,24.38-.16,48.77-.02,73.15-.07-.01,38.45.02,76.9-.01,115.35-.53,13.56-4.31,27.58-13.25,38.08-11.47,12.7-27.69,20.08-44.18,23.71-25.91,6.55-53.03,7.11-79.43,3.51-11.1-1.65-21.98-4.6-32.55-8.31-11.43-4.09-22.67-9.89-30.81-19.1-6.45-7.34-9.83-16.88-11.4-26.39-1.47-8.76-1.06-17.65-1.11-26.49,0-33.45,0-66.9,0-100.36Z" style="fill: rgb(255, 255, 255) !important; stroke-width: 0px !important;"/>
        <path class="path-cls-1" d="M1027.4,504.57c24.2,0,48.41,0,72.62,0,0,19.44-.05,38.88.03,58.32,19.2-19.49,38.47-38.91,57.77-58.31,32.56.02,65.11-.07,97.67.04-23.91,21.55-48.05,42.83-72.06,64.26,26.51,38.79,53.09,77.54,79.56,116.36-30.42.21-60.85,0-91.27.1-15.81-23.88-31.36-47.94-47.28-71.75-8.07,6.56-16.25,12.98-24.39,19.45-.08,17.43-.02,34.85-.03,52.28-24.21.02-48.42,0-72.63,0,0-60.25,0-120.51,0-180.76Z" style="fill: rgb(255, 255, 255) !important; stroke-width: 0px !important;"/>
        <path class="path-cls-1" d="M1285.52,504.57c70.01-.03,140.02.08,210.03-.05.23,16.57-.03,33.15.13,49.73-44.36.24-88.73-.09-133.09.17.07,4.21.04,8.43.04,12.66,33.91-.02,67.82.02,101.73-.02.07,16.46.01,32.92.03,49.39-33.93.03-67.85-.07-101.77.05.03,4.27,0,8.55,0,12.82,44.34,0,88.67,0,133,0,.02,18.5,0,37,0,55.5-70.03.02-140.06-.02-210.09.02-.08-60.09-.02-120.18-.03-180.27Z" style="fill: rgb(255, 255, 255) !important; stroke-width: 0px !important;"/>
      </g>
      <path class="path-cls-1" d="M1537.76,504.58c57.72,0,115.43,0,173.15,0,12.74.41,26.21,2.8,36.41,11,10.97,8.18,16.08,22.1,17.3,35.33.71,15.64-2.62,32.44-13.34,44.41-7.12,8.35-17.83,12.47-28.35,14.5,4.27,8.26,9.66,15.99,14.34,24.06,10.39,17.07,20.83,34.11,31.2,51.19-28.23,0-56.46,0-84.69,0-11.36-18.95-22.77-37.88-34.16-56.81-2.57-3.81-4.4-8.22-7.39-11.67-9.24-.06-18.47.01-27.71-.02,0,22.8-.06,45.6.03,68.4-25.59.25-51.19.04-76.79.1v-180.49ZM1614.52,556.7c-.02,4.94.02,9.88-.04,14.82,20.47.12,40.94.04,61.41.05,3,.09,6.41-1.29,7.23-4.45,1.85-4.42-1.09-10.51-6.25-10.38-20.78-.1-41.57-.01-62.35-.04Z" style="fill: rgb(255, 255, 255) !important; stroke-width: 0px !important;"/>
    </g>
  </g>
  <g id="Layer_2" data-name="Layer 2">
    <g>
      <path class="path-cls-3" d="M245.74,1308.03v-116.59h38.12c12.65,0,22.17,2.62,28.55,7.85,6.38,5.23,9.57,12.97,9.57,23.22,0,5.45-1.55,10.26-4.64,14.45-3.1,4.19-7.31,7.43-12.65,9.73,6.3,1.76,11.28,5.11,14.93,10.05,3.66,4.94,5.49,10.82,5.49,17.66,0,10.46-3.39,18.69-10.17,24.66-6.78,5.98-16.36,8.97-28.75,8.97h-40.44ZM261.12,1241.17h23.22c6.73,0,12.1-1.68,16.14-5.05,4.03-3.37,6.05-7.95,6.05-13.72,0-6.42-1.87-11.09-5.61-14-3.74-2.92-9.42-4.37-17.06-4.37h-22.74v37.16ZM261.12,1253.5v41.96h25.38c7.15,0,12.8-1.85,16.94-5.57,4.14-3.71,6.21-8.82,6.21-15.33,0-14.04-7.63-21.06-22.9-21.06h-25.62Z" style="fill: rgb(255, 255, 255) !important; stroke-width: 0px !important;"/>
      <path class="path-cls-3" d="M384.32,1234.68c-2.24-.37-4.67-.56-7.29-.56-9.72,0-16.31,4.14-19.78,12.41v61.5h-14.81v-86.64h14.41l.24,10.01c4.86-7.74,11.74-11.61,20.66-11.61,2.88,0,5.07.37,6.57,1.12v13.77Z" style="fill: rgb(255, 255, 255) !important; stroke-width: 0px !important;"/>
      <path class="path-cls-3" d="M449.03,1299.46c-5.77,6.78-14.23,10.17-25.38,10.17-9.24,0-16.27-2.68-21.1-8.05-4.83-5.37-7.27-13.31-7.33-23.82v-56.38h14.81v55.97c0,13.13,5.34,19.7,16.02,19.7,11.32,0,18.84-4.22,22.58-12.65v-63.02h14.81v86.64h-14.09l-.32-8.57Z" style="fill: rgb(255, 255, 255) !important; stroke-width: 0px !important;"/>
      <path class="path-cls-3" d="M507.05,1267.91l-9.29,9.69v30.43h-14.81v-123h14.81v74.39l7.93-9.53,26.99-28.51h18.02l-33.71,36.2,37.64,50.45h-17.38l-30.19-40.12Z" style="fill: rgb(255, 255, 255) !important; stroke-width: 0px !important;"/>
      <path class="path-cls-3" d="M594.1,1309.63c-11.75,0-21.3-3.86-28.67-11.57-7.37-7.71-11.05-18.03-11.05-30.95v-2.72c0-8.59,1.64-16.27,4.92-23.02,3.28-6.75,7.87-12.04,13.77-15.86,5.9-3.82,12.29-5.73,19.18-5.73,11.26,0,20.02,3.71,26.27,11.13,6.25,7.42,9.37,18.04,9.37,31.87v6.17h-58.7c.21,8.54,2.71,15.44,7.49,20.7,4.78,5.26,10.85,7.89,18.22,7.89,5.23,0,9.66-1.07,13.29-3.2,3.63-2.13,6.81-4.96,9.53-8.49l9.05,7.05c-7.26,11.16-18.15,16.74-32.67,16.74ZM592.26,1231.96c-5.98,0-11,2.18-15.05,6.53-4.06,4.35-6.57,10.45-7.53,18.3h43.4v-1.12c-.43-7.53-2.46-13.36-6.09-17.5-3.63-4.14-8.54-6.21-14.73-6.21Z" style="fill: rgb(255, 255, 255) !important; stroke-width: 0px !important;"/>
      <path class="path-cls-3" d="M684.73,1234.68c-2.24-.37-4.67-.56-7.29-.56-9.72,0-16.31,4.14-19.78,12.41v61.5h-14.81v-86.64h14.41l.24,10.01c4.86-7.74,11.74-11.61,20.66-11.61,2.88,0,5.07.37,6.57,1.12v13.77Z" style="fill: rgb(255, 255, 255) !important; stroke-width: 0px !important;"/>
      <path class="path-cls-3" d="M775.62,1256.06c-13.19-3.79-22.78-8.45-28.79-13.97s-9.01-12.34-9.01-20.46c0-9.18,3.67-16.78,11.01-22.78,7.34-6.01,16.88-9.01,28.63-9.01,8.01,0,15.15,1.55,21.42,4.64,6.27,3.1,11.13,7.37,14.57,12.81s5.17,11.4,5.17,17.86h-15.46c0-7.07-2.24-12.63-6.73-16.67-4.48-4.04-10.81-6.07-18.98-6.07-7.58,0-13.49,1.67-17.74,5.01-4.24,3.34-6.37,7.98-6.37,13.92,0,4.76,2.01,8.79,6.05,12.08,4.03,3.29,10.89,6.3,20.58,9.02s17.27,5.73,22.74,9.02c5.47,3.28,9.53,7.11,12.17,11.49,2.64,4.38,3.96,9.53,3.96,15.46,0,9.45-3.68,17.02-11.05,22.7s-17.22,8.53-29.55,8.53c-8.01,0-15.48-1.54-22.42-4.6-6.94-3.07-12.29-7.27-16.06-12.61-3.76-5.34-5.65-11.4-5.65-18.18h15.46c0,7.05,2.6,12.61,7.81,16.7s12.16,6.13,20.86,6.13c8.11,0,14.33-1.65,18.66-4.96,4.32-3.31,6.49-7.82,6.49-13.53s-2-10.13-6.01-13.25-11.26-6.21-21.78-9.25Z" style="fill: rgb(255, 255, 255) !important; stroke-width: 0px !important;"/>
      <path class="path-cls-3" d="M908,1265.67c0,13.19-3.02,23.81-9.05,31.87-6.03,8.06-14.2,12.09-24.5,12.09s-18.79-3.34-24.82-10.01v41.72h-14.81v-119.96h13.53l.72,9.61c6.03-7.47,14.41-11.21,25.14-11.21s18.64,3.92,24.7,11.77c6.06,7.85,9.09,18.77,9.09,32.75v1.36ZM893.19,1263.99c0-9.77-2.08-17.48-6.25-23.14-4.16-5.66-9.88-8.49-17.14-8.49-8.97,0-15.7,3.98-20.18,11.93v41.4c4.43,7.9,11.21,11.85,20.34,11.85,7.1,0,12.75-2.82,16.94-8.45,4.19-5.63,6.29-14,6.29-25.1Z" style="fill: rgb(255, 255, 255) !important; stroke-width: 0px !important;"/>
      <path class="path-cls-3" d="M974.18,1308.03c-.85-1.71-1.55-4.75-2.08-9.13-6.89,7.15-15.11,10.73-24.66,10.73-8.54,0-15.55-2.42-21.02-7.25-5.47-4.83-8.21-10.96-8.21-18.38,0-9.02,3.43-16.03,10.29-21.02,6.86-4.99,16.51-7.49,28.95-7.49h14.41v-6.81c0-5.18-1.55-9.3-4.64-12.37-3.1-3.07-7.66-4.6-13.69-4.6-5.29,0-9.72,1.33-13.29,4-3.58,2.67-5.37,5.9-5.37,9.69h-14.89c0-4.32,1.53-8.5,4.6-12.53,3.07-4.03,7.23-7.22,12.49-9.57,5.26-2.35,11.04-3.52,17.34-3.52,9.98,0,17.8,2.5,23.46,7.49,5.66,4.99,8.59,11.87,8.81,20.62v39.88c0,7.96,1.01,14.28,3.04,18.98v1.28h-15.54ZM949.59,1296.74c4.64,0,9.05-1.2,13.21-3.6s7.18-5.53,9.05-9.37v-17.78h-11.61c-18.15,0-27.23,5.31-27.23,15.94,0,4.64,1.55,8.28,4.64,10.89,3.1,2.62,7.07,3.92,11.93,3.92Z" style="fill: rgb(255, 255, 255) !important; stroke-width: 0px !important;"/>
      <path class="path-cls-3" d="M1025.73,1200.41v20.98h16.18v11.45h-16.18v53.8c0,3.47.72,6.08,2.16,7.82,1.44,1.74,3.9,2.61,7.37,2.61,1.71,0,4.06-.32,7.05-.96v11.94c-3.9,1.06-7.69,1.59-11.37,1.59-6.62,0-11.61-2-14.97-6.01s-5.04-9.69-5.04-17.06v-53.73h-15.78v-11.45h15.78v-20.98h14.81Z" style="fill: rgb(255, 255, 255) !important; stroke-width: 0px !important;"/>
      <path class="path-cls-3" d="M1054.15,1198.4c0-2.4.73-4.43,2.2-6.09,1.47-1.65,3.64-2.48,6.53-2.48s5.07.83,6.57,2.48c1.49,1.66,2.24,3.68,2.24,6.09s-.75,4.4-2.24,6.01c-1.5,1.6-3.68,2.4-6.57,2.4s-5.06-.8-6.53-2.4c-1.47-1.6-2.2-3.6-2.2-6.01ZM1070.16,1308.03h-14.81v-86.64h14.81v86.64Z" style="fill: rgb(255, 255, 255) !important; stroke-width: 0px !important;"/>
      <path class="path-cls-3" d="M1142.54,1308.03c-.85-1.71-1.55-4.75-2.08-9.13-6.89,7.15-15.11,10.73-24.66,10.73-8.54,0-15.55-2.42-21.02-7.25-5.47-4.83-8.21-10.96-8.21-18.38,0-9.02,3.43-16.03,10.29-21.02,6.86-4.99,16.51-7.49,28.95-7.49h14.41v-6.81c0-5.18-1.55-9.3-4.64-12.37-3.1-3.07-7.66-4.6-13.69-4.6-5.29,0-9.72,1.33-13.29,4-3.58,2.67-5.37,5.9-5.37,9.69h-14.89c0-4.32,1.53-8.5,4.6-12.53,3.07-4.03,7.23-7.22,12.49-9.57,5.26-2.35,11.04-3.52,17.34-3.52,9.98,0,17.8,2.5,23.46,7.49,5.66,4.99,8.59,11.87,8.81,20.62v39.88c0,7.96,1.01,14.28,3.04,18.98v1.28h-15.54ZM1117.95,1296.74c4.64,0,9.05-1.2,13.21-3.6s7.18-5.53,9.05-9.37v-17.78h-11.61c-18.15,0-27.23,5.31-27.23,15.94,0,4.64,1.55,8.28,4.64,10.89,3.1,2.62,7.07,3.92,11.93,3.92Z" style="fill: rgb(255, 255, 255) !important; stroke-width: 0px !important;"/>
      <path class="path-cls-3" d="M1189.99,1308.03h-14.81v-123h14.81v123Z" style="fill: rgb(255, 255, 255) !important; stroke-width: 0px !important;"/>
      <path class="path-cls-3" d="M1256.61,1308.03v-116.59h38.12c12.65,0,22.17,2.62,28.55,7.85,6.38,5.23,9.57,12.97,9.57,23.22,0,5.45-1.55,10.26-4.64,14.45-3.1,4.19-7.31,7.43-12.65,9.73,6.3,1.76,11.28,5.11,14.93,10.05,3.66,4.94,5.49,10.82,5.49,17.66,0,10.46-3.39,18.69-10.17,24.66-6.78,5.98-16.36,8.97-28.75,8.97h-40.44ZM1271.99,1241.17h23.22c6.73,0,12.1-1.68,16.14-5.05,4.03-3.37,6.05-7.95,6.05-13.72,0-6.42-1.87-11.09-5.61-14-3.74-2.92-9.42-4.37-17.06-4.37h-22.74v37.16ZM1271.99,1253.5v41.96h25.38c7.15,0,12.8-1.85,16.94-5.57,4.14-3.71,6.21-8.82,6.21-15.33,0-14.04-7.63-21.06-22.9-21.06h-25.62Z" style="fill: rgb(255, 255, 255) !important; stroke-width: 0px !important;"/>
      <path class="path-cls-3" d="M1352.45,1198.4c0-2.4.73-4.43,2.2-6.09,1.47-1.65,3.64-2.48,6.53-2.48s5.07.83,6.57,2.48c1.49,1.66,2.24,3.68,2.24,6.09s-.75,4.4-2.24,6.01c-1.5,1.6-3.68,2.4-6.57,2.4s-5.06-.8-6.53-2.4c-1.47-1.6-2.2-3.6-2.2-6.01ZM1368.47,1308.03h-14.81v-86.64h14.81v86.64Z" style="fill: rgb(255, 255, 255) !important; stroke-width: 0px !important;"/>
      <path class="path-cls-3" d="M1384.23,1263.91c0-8.49,1.67-16.12,5-22.9,3.34-6.78,7.98-12.01,13.93-15.7,5.95-3.68,12.75-5.53,20.38-5.53,11.8,0,21.34,4.08,28.63,12.25s10.93,19.03,10.93,32.59v1.04c0,8.44-1.62,16-4.84,22.7-3.23,6.7-7.85,11.92-13.85,15.66-6.01,3.74-12.91,5.61-20.7,5.61-11.75,0-21.26-4.08-28.55-12.25s-10.93-18.98-10.93-32.43v-1.04ZM1399.12,1265.67c0,9.61,2.23,17.32,6.69,23.14,4.46,5.82,10.42,8.73,17.9,8.73s13.51-2.95,17.94-8.85c4.43-5.9,6.65-14.16,6.65-24.78,0-9.5-2.26-17.2-6.77-23.1-4.51-5.9-10.5-8.85-17.98-8.85s-13.21,2.91-17.7,8.73c-4.48,5.82-6.73,14.15-6.73,24.98Z" style="fill: rgb(255, 255, 255) !important; stroke-width: 0px !important;"/>
      <path class="path-cls-3" d="M1494.01,1308.03h-14.81v-123h14.81v123Z" style="fill: rgb(255, 255, 255) !important; stroke-width: 0px !important;"/>
      <path class="path-cls-3" d="M1510.08,1263.91c0-8.49,1.67-16.12,5-22.9,3.34-6.78,7.98-12.01,13.93-15.7,5.95-3.68,12.75-5.53,20.38-5.53,11.8,0,21.34,4.08,28.63,12.25s10.93,19.03,10.93,32.59v1.04c0,8.44-1.62,16-4.84,22.7-3.23,6.7-7.85,11.92-13.85,15.66-6.01,3.74-12.91,5.61-20.7,5.61-11.75,0-21.26-4.08-28.55-12.25s-10.93-18.98-10.93-32.43v-1.04ZM1524.97,1265.67c0,9.61,2.23,17.32,6.69,23.14,4.46,5.82,10.42,8.73,17.9,8.73s13.51-2.95,17.94-8.85c4.43-5.9,6.65-14.16,6.65-24.78,0-9.5-2.26-17.2-6.77-23.1-4.51-5.9-10.5-8.85-17.98-8.85s-13.21,2.91-17.7,8.73c-4.48,5.82-6.73,14.15-6.73,24.98Z" style="fill: rgb(255, 255, 255) !important; stroke-width: 0px !important;"/>
      <path class="path-cls-3" d="M1600.71,1263.99c0-13.51,3.12-24.25,9.37-32.23,6.25-7.98,14.52-11.97,24.82-11.97s18.82,3.74,24.74,11.21l.72-9.61h13.53v84.56c0,11.21-3.32,20.05-9.97,26.51-6.65,6.46-15.58,9.69-26.79,9.69-6.25,0-12.36-1.33-18.34-4-5.98-2.67-10.54-6.33-13.69-10.97l7.69-8.89c6.35,7.85,14.12,11.77,23.3,11.77,7.21,0,12.83-2.03,16.86-6.09,4.03-4.06,6.05-9.77,6.05-17.14v-7.45c-5.93,6.83-14.01,10.25-24.26,10.25s-18.35-4.08-24.62-12.25c-6.27-8.17-9.41-19.3-9.41-33.39ZM1615.61,1265.67c0,9.77,2,17.44,6.01,23.02,4,5.58,9.61,8.37,16.82,8.37,9.34,0,16.2-4.24,20.58-12.73v-39.56c-4.54-8.27-11.34-12.41-20.42-12.41-7.21,0-12.84,2.8-16.9,8.41-4.06,5.61-6.09,13.91-6.09,24.9Z" style="fill: rgb(255, 255, 255) !important; stroke-width: 0px !important;"/>
      <path class="path-cls-3" d="M1722.5,1286.33l20.18-64.94h15.86l-34.83,100.02c-5.39,14.41-13.96,21.62-25.71,21.62l-2.8-.24-5.53-1.04v-12.01l4,.32c5.02,0,8.93-1.01,11.73-3.04,2.8-2.03,5.11-5.74,6.93-11.13l3.28-8.81-30.91-85.68h16.18l21.62,64.94Z" style="fill: rgb(255, 255, 255) !important; stroke-width: 0px !important;"/>
    </g>
  </g>
</svg>